<svg width="335" height="125" viewBox="0 0 335 125" fill="none" xmlns="http://www.w3.org/2000/svg">
<path d="M264.5 94.1875C264.5 94.0625 264.5 93.9375 264.5 93.8125C261.25 93.7917 258 93.7719 254.75 93.7531C225.5 93.5844 196.25 93.5 167 93.5C137.75 93.5 108.5 93.5844 79.25 93.7531C76 93.7719 72.75 93.7917 69.5 93.8125C69.5 93.9375 69.5 94.0625 69.5 94.1875C72.75 94.2083 76 94.2281 79.25 94.2469C108.5 94.4156 137.75 94.5 167 94.5C196.25 94.5 225.5 94.4156 254.75 94.2469C258 94.2281 261.25 94.2083 264.5 94.1875Z" fill="url(#paint0_linear_8_106)"/>
<path d="M140.154 10.3263L148.951 4.58948V23.1562L140.154 33.2737V10.3263Z" fill="#17568E"/>
<path d="M136.33 16.8281V37.6317C136.33 37.6317 133.407 41.8161 130.975 43.912C129.579 45.1154 127.151 46.6597 127.151 46.6597V23.1084L136.33 16.8281Z" fill="#2C6CA6"/>
<path d="M124.091 28.3018V47.7629C122.944 48.1601 120.114 48.9544 117.972 48.9544H114.912V34.2592L124.091 28.3018Z" fill="#66ADDE"/>
<path d="M145.126 48.2187C124.856 51.2784 113 50.8667 113 50.8667C113 50.8667 123.332 53.8275 143.979 52.0433C150.147 51.5102 160.125 49.5384 167.691 48.2187C200.582 42.4819 222 48.2187 222 48.2187C222 48.2187 212.056 42.9458 193.316 42.4526C174.575 41.9595 165.397 45.1591 145.126 48.2187Z" fill="url(#paint1_linear_8_106)"/>
<path d="M189.754 20.6526L172.082 0L151.529 23.3298L130.975 46.6596L150.184 39.0105L162.862 19.1228L160.557 33.6561L170.929 21.0351L172.466 5.35439L187.064 22.1825L182.607 27.9193L193.211 21.8L209.731 41.3053C212.531 41.9384 213.258 42.0241 216.646 43.6L212.804 40.1579L193.98 18.3579L189.754 20.6526Z" fill="url(#paint2_linear_8_106)"/>
<path d="M187.044 22.565L182.52 27.8443L182.667 28.0171L193.29 21.5659L209.44 41.0972C209.248 41.0445 208.983 40.9726 208.661 40.8882C207.961 40.7048 206.991 40.4608 205.914 40.2183C203.763 39.7341 201.17 39.2525 199.433 39.2779C198.577 39.2904 197.294 39.2018 195.507 39.1382C193.724 39.0748 191.45 39.0373 188.626 39.1538C182.977 39.3869 175.13 40.2356 164.605 42.7232C154.095 45.2075 145.688 46.1633 139.909 46.4976C137.02 46.6647 134.787 46.6768 133.278 46.647C132.524 46.6321 131.95 46.6061 131.565 46.5845C131.548 46.5835 131.53 46.5816 131.514 46.5806L150.52 39.5005L150.557 39.4868L150.578 39.4546L162.898 20.0406L160.694 33.6382L160.628 34.0474L160.894 33.73L171.221 21.4917L171.244 21.4644L171.248 21.4283L172.751 6.01419L187.044 22.565Z" fill="#0A2742" stroke="#0A2742" stroke-width="0.229474"/>
<path d="M145.126 46.2772C164.876 40.7558 173.672 36.2861 183.754 27.1544L193.316 21.4176C191.454 28.1301 192.818 32.9846 199.818 39.393C188.318 38.8221 182.253 39.4664 162.337 43.6C155.453 45.0288 148.951 45.8948 145.126 46.2772Z" fill="#1F4E79"/>
<path d="M73.902 80.36V84H58.726V64.4H73.538V68.04H63.234V72.296H72.334V75.824H63.234V80.36H73.902ZM77.7912 64.4H82.3272V80.304H92.1552V84H77.7912V64.4ZM115.838 86.1C115.203 86.884 114.428 87.4813 113.514 87.892C112.618 88.3027 111.628 88.508 110.546 88.508C109.09 88.508 107.774 88.1907 106.598 87.556C105.422 86.94 104.078 85.8387 102.566 84.252C100.792 84.028 99.2055 83.4587 97.8055 82.544C96.4242 81.6293 95.3415 80.4533 94.5575 79.016C93.7922 77.56 93.4095 75.9547 93.4095 74.2C93.4095 72.2773 93.8668 70.5507 94.7815 69.02C95.7148 67.4707 96.9935 66.2573 98.6175 65.38C100.26 64.5027 102.099 64.064 104.134 64.064C106.168 64.064 107.998 64.5027 109.622 65.38C111.246 66.2573 112.524 67.4707 113.458 69.02C114.391 70.5507 114.858 72.2773 114.858 74.2C114.858 76.4773 114.214 78.4747 112.926 80.192C111.656 81.9093 109.967 83.104 107.858 83.776C108.324 84.2613 108.772 84.6067 109.202 84.812C109.65 85.036 110.126 85.148 110.63 85.148C111.843 85.148 112.907 84.6627 113.822 83.692L115.838 86.1ZM98.0015 74.2C98.0015 75.4133 98.2628 76.496 98.7855 77.448C99.3268 78.4 100.064 79.1467 100.998 79.688C101.931 80.2107 102.976 80.472 104.134 80.472C105.291 80.472 106.336 80.2107 107.27 79.688C108.203 79.1467 108.931 78.4 109.454 77.448C109.995 76.496 110.266 75.4133 110.266 74.2C110.266 72.9867 109.995 71.904 109.454 70.952C108.931 70 108.203 69.2627 107.27 68.74C106.336 68.1987 105.291 67.928 104.134 67.928C102.976 67.928 101.931 68.1987 100.998 68.74C100.064 69.2627 99.3268 70 98.7855 70.952C98.2628 71.904 98.0015 72.9867 98.0015 74.2ZM127.255 84.336C124.455 84.336 122.271 83.5613 120.703 82.012C119.153 80.4627 118.379 78.2507 118.379 75.376V64.4H122.915V75.208C122.915 78.7173 124.371 80.472 127.283 80.472C128.701 80.472 129.784 80.052 130.531 79.212C131.277 78.3533 131.651 77.0187 131.651 75.208V64.4H136.131V75.376C136.131 78.2507 135.347 80.4627 133.779 82.012C132.229 83.5613 130.055 84.336 127.255 84.336ZM140.893 64.4H145.429V84H140.893V64.4Z" fill="white"/>
<path d="M167.95 84.336C165.953 84.336 164.142 83.9067 162.518 83.048C160.913 82.1707 159.643 80.9667 158.71 79.436C157.795 77.8867 157.338 76.1413 157.338 74.2C157.338 72.2587 157.795 70.5227 158.71 68.992C159.643 67.4427 160.913 66.2387 162.518 65.38C164.142 64.5027 165.962 64.064 167.978 64.064C169.677 64.064 171.207 64.3627 172.57 64.96C173.951 65.5573 175.109 66.416 176.042 67.536L173.13 70.224C171.805 68.6933 170.162 67.928 168.202 67.928C166.989 67.928 165.906 68.1987 164.954 68.74C164.002 69.2627 163.255 70 162.714 70.952C162.191 71.904 161.93 72.9867 161.93 74.2C161.93 75.4133 162.191 76.496 162.714 77.448C163.255 78.4 164.002 79.1467 164.954 79.688C165.906 80.2107 166.989 80.472 168.202 80.472C170.162 80.472 171.805 79.6973 173.13 78.148L176.042 80.836C175.109 81.9747 173.951 82.8427 172.57 83.44C171.189 84.0373 169.649 84.336 167.95 84.336ZM191.91 79.8H182.81L181.074 84H176.426L185.162 64.4H189.642L198.406 84H193.646L191.91 79.8ZM190.482 76.356L187.374 68.852L184.266 76.356H190.482ZM209.204 64.4C210.94 64.4 212.443 64.6893 213.712 65.268C215 65.8467 215.989 66.668 216.68 67.732C217.371 68.796 217.716 70.056 217.716 71.512C217.716 72.9493 217.371 74.2093 216.68 75.292C215.989 76.356 215 77.1773 213.712 77.756C212.443 78.316 210.94 78.596 209.204 78.596H205.256V84H200.72V64.4H209.204ZM208.952 74.9C210.315 74.9 211.351 74.6107 212.06 74.032C212.769 73.4347 213.124 72.5947 213.124 71.512C213.124 70.4107 212.769 69.5707 212.06 68.992C211.351 68.3947 210.315 68.096 208.952 68.096H205.256V74.9H208.952ZM221.234 64.4H225.77V84H221.234V64.4ZM234.762 68.096H228.49V64.4H245.57V68.096H239.298V84H234.762V68.096ZM260.214 79.8H251.114L249.378 84H244.73L253.466 64.4H257.946L266.71 84H261.95L260.214 79.8ZM258.786 76.356L255.678 68.852L252.57 76.356H258.786ZM269.024 64.4H273.56V80.304H283.388V84H269.024V64.4Z" fill="#C6C6C6"/>
<path d="M67.3509 105.752H68.5029V109.028C68.0869 109.372 67.6029 109.636 67.0509 109.82C66.4989 110.004 65.9229 110.096 65.3229 110.096C64.4749 110.096 63.7109 109.912 63.0309 109.544C62.3509 109.168 61.8149 108.656 61.4229 108.008C61.0389 107.352 60.8469 106.616 60.8469 105.8C60.8469 104.984 61.0389 104.248 61.4229 103.592C61.8149 102.936 62.3509 102.424 63.0309 102.056C63.7189 101.688 64.4909 101.504 65.3469 101.504C66.0189 101.504 66.6269 101.616 67.1709 101.84C67.7229 102.056 68.1909 102.376 68.5749 102.8L67.8309 103.544C67.1589 102.896 66.3469 102.572 65.3949 102.572C64.7549 102.572 64.1789 102.712 63.6669 102.992C63.1629 103.264 62.7669 103.648 62.4789 104.144C62.1909 104.632 62.0469 105.184 62.0469 105.8C62.0469 106.408 62.1909 106.96 62.4789 107.456C62.7669 107.944 63.1629 108.328 63.6669 108.608C64.1789 108.888 64.7509 109.028 65.3829 109.028C66.1349 109.028 66.7909 108.848 67.3509 108.488V105.752ZM77.2564 108.956V110H71.1604V101.6H77.0884V102.644H72.3604V105.224H76.5724V106.244H72.3604V108.956H77.2564ZM82.0075 110.096C81.3755 110.096 80.7635 110 80.1715 109.808C79.5875 109.608 79.1275 109.352 78.7915 109.04L79.2355 108.104C79.5555 108.392 79.9635 108.628 80.4595 108.812C80.9635 108.988 81.4795 109.076 82.0075 109.076C82.7035 109.076 83.2235 108.96 83.5675 108.728C83.9115 108.488 84.0835 108.172 84.0835 107.78C84.0835 107.492 83.9875 107.26 83.7955 107.084C83.6115 106.9 83.3795 106.76 83.0995 106.664C82.8275 106.568 82.4395 106.46 81.9355 106.34C81.3035 106.188 80.7915 106.036 80.3995 105.884C80.0155 105.732 79.6835 105.5 79.4035 105.188C79.1315 104.868 78.9955 104.44 78.9955 103.904C78.9955 103.456 79.1115 103.052 79.3435 102.692C79.5835 102.332 79.9435 102.044 80.4235 101.828C80.9035 101.612 81.4995 101.504 82.2115 101.504C82.7075 101.504 83.1955 101.568 83.6755 101.696C84.1555 101.824 84.5675 102.008 84.9115 102.248L84.5155 103.208C84.1635 102.984 83.7875 102.816 83.3875 102.704C82.9875 102.584 82.5955 102.524 82.2115 102.524C81.5315 102.524 81.0195 102.648 80.6755 102.896C80.3395 103.144 80.1715 103.464 80.1715 103.856C80.1715 104.144 80.2675 104.38 80.4595 104.564C80.6515 104.74 80.8875 104.88 81.1675 104.984C81.4555 105.08 81.8435 105.184 82.3315 105.296C82.9635 105.448 83.4715 105.6 83.8555 105.752C84.2395 105.904 84.5675 106.136 84.8395 106.448C85.1195 106.76 85.2595 107.18 85.2595 107.708C85.2595 108.148 85.1395 108.552 84.8995 108.92C84.6595 109.28 84.2955 109.568 83.8075 109.784C83.3195 109.992 82.7195 110.096 82.0075 110.096ZM88.9234 102.644H86.0434V101.6H92.9914V102.644H90.1114V110H88.9234V102.644ZM94.6584 101.6H95.8584V110H94.6584V101.6ZM102.525 110.096C101.677 110.096 100.913 109.912 100.233 109.544C99.5532 109.168 99.0172 108.652 98.6252 107.996C98.2412 107.34 98.0492 106.608 98.0492 105.8C98.0492 104.992 98.2412 104.26 98.6252 103.604C99.0172 102.948 99.5532 102.436 100.233 102.068C100.913 101.692 101.677 101.504 102.525 101.504C103.365 101.504 104.125 101.692 104.805 102.068C105.485 102.436 106.017 102.948 106.401 103.604C106.785 104.252 106.977 104.984 106.977 105.8C106.977 106.616 106.785 107.352 106.401 108.008C106.017 108.656 105.485 109.168 104.805 109.544C104.125 109.912 103.365 110.096 102.525 110.096ZM102.525 109.028C103.141 109.028 103.693 108.888 104.181 108.608C104.677 108.328 105.065 107.944 105.345 107.456C105.633 106.96 105.777 106.408 105.777 105.8C105.777 105.192 105.633 104.644 105.345 104.156C105.065 103.66 104.677 103.272 104.181 102.992C103.693 102.712 103.141 102.572 102.525 102.572C101.909 102.572 101.349 102.712 100.845 102.992C100.349 103.272 99.9572 103.66 99.6692 104.156C99.3892 104.644 99.2492 105.192 99.2492 105.8C99.2492 106.408 99.3892 106.96 99.6692 107.456C99.9572 107.944 100.349 108.328 100.845 108.608C101.349 108.888 101.909 109.028 102.525 109.028ZM103.257 99.356H104.721L102.705 100.916H101.625L103.257 99.356ZM116.395 101.6V110H115.411L110.371 103.736V110H109.171V101.6H110.155L115.195 107.864V101.6H116.395ZM124.52 102.644H121.64V101.6H128.588V102.644H125.708V110H124.52V102.644ZM136.351 108.956V110H130.255V101.6H136.183V102.644H131.455V105.224H135.667V106.244H131.455V108.956H136.351ZM133.963 99.356H135.427L133.411 100.916H132.331L133.963 99.356ZM142.375 110.096C141.535 110.096 140.775 109.912 140.095 109.544C139.423 109.168 138.895 108.656 138.511 108.008C138.127 107.352 137.935 106.616 137.935 105.8C137.935 104.984 138.127 104.252 138.511 103.604C138.895 102.948 139.427 102.436 140.107 102.068C140.787 101.692 141.547 101.504 142.387 101.504C143.043 101.504 143.643 101.616 144.187 101.84C144.731 102.056 145.195 102.38 145.579 102.812L144.799 103.568C144.167 102.904 143.379 102.572 142.435 102.572C141.811 102.572 141.247 102.712 140.743 102.992C140.239 103.272 139.843 103.66 139.555 104.156C139.275 104.644 139.135 105.192 139.135 105.8C139.135 106.408 139.275 106.96 139.555 107.456C139.843 107.944 140.239 108.328 140.743 108.608C141.247 108.888 141.811 109.028 142.435 109.028C143.371 109.028 144.159 108.692 144.799 108.02L145.579 108.776C145.195 109.208 144.727 109.536 144.175 109.76C143.631 109.984 143.031 110.096 142.375 110.096ZM154.875 101.6V110H153.891L148.851 103.736V110H147.651V101.6H148.635L153.675 107.864V101.6H154.875ZM157.749 101.6H158.949V110H157.749V101.6ZM165.58 110.096C164.74 110.096 163.98 109.912 163.3 109.544C162.628 109.168 162.1 108.656 161.716 108.008C161.332 107.352 161.14 106.616 161.14 105.8C161.14 104.984 161.332 104.252 161.716 103.604C162.1 102.948 162.632 102.436 163.312 102.068C163.992 101.692 164.752 101.504 165.592 101.504C166.248 101.504 166.848 101.616 167.392 101.84C167.936 102.056 168.4 102.38 168.784 102.812L168.004 103.568C167.372 102.904 166.584 102.572 165.64 102.572C165.016 102.572 164.452 102.712 163.948 102.992C163.444 103.272 163.048 103.66 162.76 104.156C162.48 104.644 162.34 105.192 162.34 105.8C162.34 106.408 162.48 106.96 162.76 107.456C163.048 107.944 163.444 108.328 163.948 108.608C164.452 108.888 165.016 109.028 165.64 109.028C166.576 109.028 167.364 108.692 168.004 108.02L168.784 108.776C168.4 109.208 167.932 109.536 167.38 109.76C166.836 109.984 166.236 110.096 165.58 110.096ZM176.009 107.9H171.545L170.621 110H169.385L173.189 101.6H174.377L178.193 110H176.933L176.009 107.9ZM175.589 106.94L173.777 102.824L171.965 106.94H175.589ZM183.389 101.6H184.589V110H183.389V101.6ZM194.687 101.6V110H193.703L188.663 103.736V110H187.463V101.6H188.447L193.487 107.864V101.6H194.687ZM205.35 110L205.338 103.88L202.302 108.98H201.75L198.714 103.916V110H197.562V101.6H198.546L202.05 107.504L205.506 101.6H206.49L206.502 110H205.35ZM213.175 110.096C212.327 110.096 211.563 109.912 210.883 109.544C210.203 109.168 209.667 108.652 209.275 107.996C208.891 107.34 208.699 106.608 208.699 105.8C208.699 104.992 208.891 104.26 209.275 103.604C209.667 102.948 210.203 102.436 210.883 102.068C211.563 101.692 212.327 101.504 213.175 101.504C214.015 101.504 214.775 101.692 215.455 102.068C216.135 102.436 216.667 102.948 217.051 103.604C217.435 104.252 217.627 104.984 217.627 105.8C217.627 106.616 217.435 107.352 217.051 108.008C216.667 108.656 216.135 109.168 215.455 109.544C214.775 109.912 214.015 110.096 213.175 110.096ZM213.175 109.028C213.791 109.028 214.343 108.888 214.831 108.608C215.327 108.328 215.715 107.944 215.995 107.456C216.283 106.96 216.427 106.408 216.427 105.8C216.427 105.192 216.283 104.644 215.995 104.156C215.715 103.66 215.327 103.272 214.831 102.992C214.343 102.712 213.791 102.572 213.175 102.572C212.559 102.572 211.999 102.712 211.495 102.992C210.999 103.272 210.607 103.66 210.319 104.156C210.039 104.644 209.899 105.192 209.899 105.8C209.899 106.408 210.039 106.96 210.319 107.456C210.607 107.944 210.999 108.328 211.495 108.608C211.999 108.888 212.559 109.028 213.175 109.028ZM225.473 105.644C225.961 105.78 226.345 106.028 226.625 106.388C226.905 106.74 227.045 107.188 227.045 107.732C227.045 108.46 226.769 109.02 226.217 109.412C225.673 109.804 224.877 110 223.829 110H219.821V101.6H223.589C224.549 101.6 225.289 101.792 225.809 102.176C226.337 102.56 226.601 103.092 226.601 103.772C226.601 104.212 226.497 104.592 226.289 104.912C226.089 105.232 225.817 105.476 225.473 105.644ZM221.021 102.572V105.26H223.481C224.097 105.26 224.569 105.148 224.897 104.924C225.233 104.692 225.401 104.356 225.401 103.916C225.401 103.476 225.233 103.144 224.897 102.92C224.569 102.688 224.097 102.572 223.481 102.572H221.021ZM223.781 109.028C224.461 109.028 224.973 108.916 225.317 108.692C225.661 108.468 225.833 108.116 225.833 107.636C225.833 106.7 225.149 106.232 223.781 106.232H221.021V109.028H223.781ZM229.263 101.6H230.463V110H229.263V101.6ZM233.338 101.6H234.538V108.956H239.086V110H233.338V101.6ZM240.823 101.6H242.023V110H240.823V101.6ZM250.249 107.9H245.785L244.861 110H243.625L247.429 101.6H248.617L252.433 110H251.173L250.249 107.9ZM249.829 106.94L248.017 102.824L246.205 106.94H249.829ZM259.662 110L257.85 107.42C257.626 107.436 257.45 107.444 257.322 107.444H255.246V110H254.046V101.6H257.322C258.41 101.6 259.266 101.86 259.89 102.38C260.514 102.9 260.826 103.616 260.826 104.528C260.826 105.176 260.666 105.728 260.346 106.184C260.026 106.64 259.57 106.972 258.978 107.18L260.97 110H259.662ZM257.286 106.424C258.046 106.424 258.626 106.26 259.026 105.932C259.426 105.604 259.626 105.136 259.626 104.528C259.626 103.92 259.426 103.456 259.026 103.136C258.626 102.808 258.046 102.644 257.286 102.644H255.246V106.424H257.286ZM263.125 101.6H264.325V110H263.125V101.6ZM272.552 107.9H268.088L267.164 110H265.928L269.732 101.6H270.92L274.736 110H273.476L272.552 107.9ZM272.132 106.94L270.32 102.824L268.508 106.94H272.132Z" fill="#D9D9D9"/>
<defs>
<linearGradient id="paint0_linear_8_106" x1="69.5" y1="94.5" x2="264.5" y2="94.5" gradientUnits="userSpaceOnUse">
<stop offset="0.0673077" stop-color="#C6C6C6"/>
<stop offset="0.504808" stop-color="#F5F5F5"/>
<stop offset="1" stop-color="#C6C6C6"/>
</linearGradient>
<linearGradient id="paint1_linear_8_106" x1="113" y1="47.5086" x2="222" y2="47.5086" gradientUnits="userSpaceOnUse">
<stop offset="0.173077" stop-color="#D9D9D9"/>
<stop offset="0.495192" stop-color="white"/>
<stop offset="1" stop-color="#D9D9D9"/>
</linearGradient>
<linearGradient id="paint2_linear_8_106" x1="216.646" y1="23.3298" x2="130.975" y2="23.3298" gradientUnits="userSpaceOnUse">
<stop offset="0.0240385" stop-color="#D9D9D9"/>
<stop offset="0.538462" stop-color="white"/>
<stop offset="1" stop-color="#D9D9D9"/>
</linearGradient>
</defs>
</svg>
